# Blender v2.66 (sub 0) OBJ File: ''
# www.blender.org
mtllib untitled.mtl
o Cube
v 1.000000 -1.000000 -1.000000
v 1.000000 -1.000000 1.000000
v -1.000000 -1.000000 1.000000
v -1.000000 -1.000000 -1.000000
v 1.000000 1.000000 -0.999999
v 0.999999 1.000000 1.000001
v -1.000000 1.000000 1.000000
v -1.000000 1.000000 -1.000000
vt 0.003058 0.000000
vt 1.000000 0.003059
vt 0.000000 0.996942
vt 0.996942 1.000000
vt 0.000000 0.000000
vn -1.000000 0.000000 0.000000
vn -1.000000 -0.000000 -0.000001
vn -0.000000 1.000000 0.000000
vn 0.000000 -1.000000 0.000000
vn 0.000000 -0.000000 -1.000000
vn 1.000000 0.000000 0.000000
vn -0.000000 -0.000000 1.000000
usemtl Material
s off
f 1/1/1 2/2/1 5/3/1
f 2/2/2 6/4/2 5/3/2
usemtl Material_NONE
f 1/5/3 4/5/3 3/5/3
f 5/5/4 6/5/4 7/5/4
f 2/5/5 3/5/5 7/5/5
f 3/5/6 4/5/6 8/5/6
f 5/5/7 8/5/7 1/5/7
f 2/5/3 1/5/3 3/5/3
f 8/5/4 5/5/4 7/5/4
f 6/5/5 2/5/5 7/5/5
f 7/5/6 3/5/6 8/5/6
f 8/5/7 4/5/7 1/5/7
